<?xml version="1.0" standalone="no"?>
<!DOCTYPE svg PUBLIC "-//W3C//DTD SVG 20010904//EN"
 "http://www.w3.org/TR/2001/REC-SVG-20010904/DTD/svg10.dtd">
<svg version="1.0" xmlns="http://www.w3.org/2000/svg"
 width="590.000000pt" height="590.000000pt" viewBox="0 0 590.000000 590.000000"
 preserveAspectRatio="xMidYMid meet">
<metadata>
Created by potrace 1.14, written by Peter Selinger 2001-2017
</metadata>
<g transform="translate(0.000000,590.000000) scale(0.100000,-0.100000)"
fill="#000000" stroke="none">
<path d="M1189 3996 c-2 -2 -52 -6 -111 -10 -97 -6 -304 -29 -368 -41 -14 -3
-43 -7 -65 -10 -31 -5 -169 -33 -195 -41 -3 0 -24 -5 -48 -9 l-43 -8 6 -96 c3
-53 8 -107 10 -121 2 -14 7 -43 10 -65 9 -64 14 -73 53 -96 60 -36 109 -104
128 -178 21 -79 33 -156 27 -162 -4 -4 -26 -10 -48 -13 -36 -6 -63 -30 -277
-244 -131 -130 -238 -241 -238 -245 0 -5 3 -6 8 -4 9 6 90 16 262 32 25 2 68
7 95 10 28 3 70 7 95 10 25 2 72 7 105 11 90 10 115 9 115 -5 0 -5 9 -29 20
-55 12 -25 20 -49 20 -52 -1 -4 2 -10 7 -13 4 -3 19 -27 32 -53 13 -27 28 -48
33 -48 4 0 8 -7 8 -15 0 -15 123 -143 175 -182 58 -43 194 -89 360 -122 3 -1
12 -1 21 -1 13 0 15 -10 9 -67 -4 -38 -8 -86 -10 -108 -2 -22 -6 -54 -9 -70
-3 -17 -8 -64 -11 -105 -2 -41 -7 -86 -9 -100 -3 -14 -7 -54 -11 -89 -3 -36
-8 -79 -10 -95 -2 -17 -6 -55 -10 -84 -3 -29 -6 -58 -8 -65 -1 -6 5 -12 13
-12 8 0 14 6 12 13 -1 6 3 12 8 12 6 0 111 101 234 224 163 164 222 229 221
245 -1 12 2 50 6 84 4 34 11 94 14 132 10 91 10 93 17 100 3 4 35 13 69 21
121 27 234 68 342 122 59 30 107 58 107 63 0 5 6 9 13 9 22 0 138 104 212 191
29 35 94 143 98 165 2 11 9 32 15 47 7 15 15 39 18 53 3 13 10 27 15 30 5 3 9
13 9 22 0 9 6 29 14 44 17 31 37 91 33 98 -1 3 9 20 22 38 13 18 21 36 17 39
-3 3 3 18 14 33 11 16 20 35 20 44 0 9 5 16 12 16 6 0 8 3 5 6 -8 8 24 64 36
64 4 0 6 4 3 9 -8 12 54 100 88 125 23 18 42 21 120 21 102 0 130 -11 156 -61
8 -16 17 -31 20 -34 11 -11 106 -235 100 -235 -1 0 5 -18 14 -39 9 -21 23 -60
31 -85 20 -61 57 -140 107 -230 88 -159 316 -369 498 -461 228 -114 389 -150
660 -144 91 1 176 5 190 8 14 3 43 7 64 11 69 10 200 46 246 67 25 12 47 22
50 22 19 4 93 68 140 122 21 24 93 155 96 173 0 4 4 13 7 21 16 37 36 100 31
100 -2 0 0 8 5 18 5 9 11 31 14 47 10 52 18 89 22 105 2 8 7 29 10 45 2 17 7
41 10 55 3 14 8 41 11 60 3 19 12 64 20 100 9 36 17 72 19 81 2 8 10 38 18 66
9 28 13 54 10 57 -4 3 -1 6 5 6 7 0 11 3 11 8 -1 4 0 10 1 15 1 4 4 12 5 17 1
6 4 12 5 15 1 3 3 8 5 13 8 30 23 43 63 58 74 27 81 37 85 112 0 12 3 22 7 22
3 0 5 17 6 38 0 20 4 60 8 87 4 28 7 55 7 60 -1 6 -2 25 -4 43 -2 36 -5 38
-107 58 -14 3 -41 9 -60 14 -46 12 -80 18 -167 31 -39 5 -82 12 -94 14 -13 3
-41 7 -64 10 -22 4 -51 8 -65 10 -14 2 -58 7 -99 10 -41 4 -88 8 -104 10 -194
25 -695 19 -892 -9 -16 -3 -57 -8 -90 -11 -33 -4 -67 -8 -75 -10 -8 -3 -31 -7
-50 -9 -65 -9 -105 -16 -125 -20 -81 -18 -144 -33 -315 -76 -107 -27 -211 -52
-230 -55 -71 -14 -346 -13 -421 2 -41 7 -84 15 -97 18 -13 2 -49 11 -80 20
-31 10 -64 18 -72 20 -8 2 -35 9 -60 16 -25 7 -49 13 -55 15 -5 1 -50 11 -98
23 -84 20 -112 26 -182 37 -16 2 -41 7 -55 9 -54 11 -67 13 -130 20 -36 3 -72
8 -80 10 -16 4 -121 15 -205 21 -67 6 -612 14 -616 10z m721 -140 c14 -2 50
-7 80 -11 30 -3 62 -7 70 -9 8 -3 35 -7 60 -11 25 -3 63 -10 85 -16 22 -5 49
-12 60 -14 62 -14 193 -62 250 -92 77 -40 127 -101 142 -172 16 -73 1 -273
-24 -341 -8 -19 -13 -39 -18 -70 -2 -14 -16 -56 -30 -95 -14 -38 -28 -77 -30
-85 -2 -8 -12 -36 -23 -62 -11 -25 -18 -49 -15 -52 4 -3 1 -6 -5 -6 -7 0 -11
-3 -10 -7 10 -32 -92 -164 -187 -243 -93 -78 -285 -187 -384 -219 -81 -27 -82
-26 -77 7 2 15 7 56 11 92 3 36 8 81 11 100 2 19 6 62 9 95 3 33 8 76 10 95
10 77 17 148 20 195 2 28 5 50 5 50 1 0 3 16 5 35 1 19 6 58 9 85 3 28 8 71
10 96 3 25 6 49 7 55 3 20 -1 45 -8 41 -5 -3 -42 -8 -83 -11 -41 -4 -90 -9
-109 -11 -19 -3 -57 -7 -85 -10 -28 -3 -67 -7 -86 -9 -19 -3 -66 -7 -103 -10
-37 -4 -82 -8 -100 -11 -18 -2 -59 -7 -92 -11 -33 -3 -71 -7 -85 -9 -14 -1
-54 -6 -90 -9 -36 -4 -83 -9 -105 -12 -116 -12 -154 -16 -195 -17 l-45 -2 1
95 c1 117 12 210 31 260 4 8 7 17 8 20 4 16 40 76 56 93 10 12 19 23 19 27 0
12 126 88 170 103 58 19 116 35 160 42 19 3 42 8 50 10 8 2 38 7 65 10 28 4
61 8 75 10 14 2 52 7 85 11 33 3 61 8 63 9 5 4 337 -3 362 -9z m2815 -10 c114
-4 214 -16 320 -40 49 -11 110 -32 160 -56 58 -26 156 -94 164 -112 1 -5 13
-19 25 -31 12 -12 23 -24 23 -27 1 -3 7 -18 14 -35 38 -93 52 -270 36 -450 -7
-79 -10 -100 -22 -160 -3 -16 -8 -43 -10 -60 -2 -16 -9 -48 -15 -70 -6 -22
-15 -53 -19 -70 -25 -90 -78 -206 -126 -271 -85 -119 -279 -174 -610 -174
-173 0 -243 8 -345 37 -30 9 -56 15 -58 14 -3 -1 -149 74 -176 92 -11 6 -45
27 -75 46 -31 19 -58 38 -61 42 -3 4 -23 28 -45 55 -121 144 -158 194 -186
254 -48 99 -55 119 -65 177 -3 15 -10 33 -16 40 -6 7 -8 13 -5 13 3 0 1 15 -4
33 -6 17 -13 46 -16 62 -8 42 -11 59 -14 65 -1 3 -3 10 -4 15 -2 6 -4 12 -5
15 -11 27 -16 219 -7 260 3 14 6 33 6 42 1 9 8 24 17 32 8 9 12 16 8 16 -18 0
65 74 106 95 112 56 301 105 541 139 20 3 89 8 155 12 65 3 120 7 122 8 1 2
12 2 25 0 12 -2 85 -5 162 -8z m-3261 -1072 c-2 -29 -11 -125 -19 -199 -2 -22
-6 -65 -9 -95 -11 -107 -18 -155 -24 -162 -8 -8 -194 23 -232 39 -8 3 -24 8
-35 10 -11 1 -52 19 -92 38 -70 35 -143 102 -143 132 0 7 -5 13 -11 13 -5 0
-7 5 -4 10 3 6 2 10 -4 10 -6 0 -8 7 -5 15 4 8 1 15 -5 15 -6 0 -11 8 -11 18
0 10 -3 22 -7 26 -4 3 -8 12 -9 19 -2 7 -7 26 -12 43 -7 22 -6 31 2 32 6 1 25
4 41 6 17 3 55 8 85 11 30 3 79 8 109 11 30 4 71 8 90 9 20 2 36 4 36 5 0 1
20 3 45 5 68 4 175 17 178 20 2 2 11 2 20 0 12 -1 17 -11 16 -31z"/>
</g>
</svg>
